<svg xmlns="http://www.w3.org/2000/svg" width="91" height="43" viewBox="0 0 91 43">
  <path fill="#FFF" fill-rule="evenodd" d="M87.5176,17.8018 C89.3936,17.8018 90.6976,18.7318 90.8876,20.2008 L89.4766,20.2008 C89.2866,19.4878 88.5886,19.0138 87.5096,19.0138 C86.4476,19.0138 85.6176,19.5538 85.6176,20.3508 C85.6176,20.9648 86.1156,21.3468 87.1686,21.6038 L88.5466,21.9358 C90.2326,22.3428 91.0456,23.0728 91.0456,24.3598 C91.0456,25.9618 89.4936,27.0658 87.4596,27.0658 C85.4676,27.0658 84.0976,26.1118 83.9406,24.6248 L85.4096,24.6248 C85.6506,25.3808 86.3646,25.8628 87.5096,25.8628 C88.7126,25.8628 89.5766,25.2888 89.5766,24.4678 C89.5766,23.8538 89.1116,23.4388 88.1576,23.2058 L86.6216,22.8318 C84.9446,22.4258 84.1806,21.7028 84.1806,20.4078 C84.1806,18.9228 85.6176,17.8018 87.5176,17.8018 L87.5176,17.8018 Z M76.1816,21.6958 L81.1126,21.6958 C81.0796,20.1098 80.1326,19.0638 78.7126,19.0638 C77.2856,19.0638 76.2886,20.1098 76.1816,21.6958 L76.1816,21.6958 Z M82.4976,24.5918 C82.0826,26.1188 80.6886,27.0658 78.7296,27.0658 C76.2476,27.0658 74.6956,25.2728 74.6956,22.4428 C74.6956,19.6278 76.2726,17.8018 78.7296,17.8018 C81.1456,17.8018 82.6146,19.5208 82.6146,22.3008 L82.6146,22.8488 L76.1816,22.8488 L76.1816,22.9148 C76.2556,24.6838 77.2446,25.8038 78.7626,25.8038 C79.9166,25.8038 80.6976,25.3808 81.0706,24.5918 L82.4976,24.5918 Z M71.4656,26.9078 L72.8936,26.9078 L72.8936,17.9598 L71.4656,17.9598 L71.4656,26.9078 Z M71.1836,15.2378 C71.1836,14.6898 71.6316,14.2408 72.1796,14.2408 C72.7276,14.2408 73.1756,14.6898 73.1756,15.2378 C73.1756,15.7848 72.7276,16.2338 72.1796,16.2338 C71.6316,16.2338 71.1836,15.7848 71.1836,15.2378 L71.1836,15.2378 Z M65.3896,17.9598 L66.7506,17.9598 L66.7506,19.2878 L66.8836,19.2878 C67.1496,18.4158 68.1786,17.8018 69.3666,17.8018 C69.5986,17.8018 69.8976,17.8188 70.0806,17.8438 L70.0806,19.2718 C69.9636,19.2388 69.4496,19.1888 69.1666,19.1888 C67.8056,19.1888 66.8176,20.1018 66.8176,21.3638 L66.8176,26.9078 L65.3896,26.9078 L65.3896,17.9598 Z M62.1116,22.4338 C62.1116,20.3088 61.1576,19.0888 59.4636,19.0888 C57.7706,19.0888 56.8156,20.3088 56.8156,22.4338 C56.8156,24.5508 57.7706,25.7798 59.4636,25.7798 C61.1576,25.7798 62.1116,24.5508 62.1116,22.4338 L62.1116,22.4338 Z M55.3376,22.4338 C55.3376,19.5538 56.9146,17.8018 59.4636,17.8018 C62.0116,17.8018 63.5886,19.5538 63.5886,22.4338 C63.5886,25.3058 62.0116,27.0658 59.4636,27.0658 C56.9146,27.0658 55.3376,25.3058 55.3376,22.4338 L55.3376,22.4338 Z M50.4956,17.8018 C52.3716,17.8018 53.6746,18.7318 53.8656,20.2008 L52.4546,20.2008 C52.2636,19.4878 51.5666,19.0138 50.4876,19.0138 C49.4246,19.0138 48.5946,19.5538 48.5946,20.3508 C48.5946,20.9648 49.0926,21.3468 50.1466,21.6038 L51.5246,21.9358 C53.2096,22.3428 54.0236,23.0728 54.0236,24.3598 C54.0236,25.9618 52.4706,27.0658 50.4376,27.0658 C48.4456,27.0658 47.0756,26.1118 46.9176,24.6248 L48.3866,24.6248 C48.6276,25.3808 49.3416,25.8628 50.4876,25.8628 C51.6906,25.8628 52.5536,25.2888 52.5536,24.4678 C52.5536,23.8538 52.0886,23.4388 51.1346,23.2058 L49.5986,22.8318 C47.9216,22.4258 47.1586,21.7028 47.1586,20.4078 C47.1586,18.9228 48.5946,17.8018 50.4956,17.8018 L50.4956,17.8018 Z M42.0066,17.8018 C43.8826,17.8018 45.1856,18.7318 45.3766,20.2008 L43.9656,20.2008 C43.7746,19.4878 43.0776,19.0138 41.9976,19.0138 C40.9356,19.0138 40.1056,19.5538 40.1056,20.3508 C40.1056,20.9648 40.6036,21.3468 41.6586,21.6038 L43.0366,21.9358 C44.7206,22.3428 45.5346,23.0728 45.5346,24.3598 C45.5346,25.9618 43.9826,27.0658 41.9486,27.0658 C39.9556,27.0658 38.5866,26.1118 38.4286,24.6248 L39.8986,24.6248 C40.1386,25.3808 40.8526,25.8628 41.9976,25.8628 C43.2026,25.8628 44.0656,25.2888 44.0656,24.4678 C44.0656,23.8538 43.6006,23.4388 42.6456,23.2058 L41.1106,22.8318 C39.4336,22.4258 38.6696,21.7028 38.6696,20.4078 C38.6696,18.9228 40.1056,17.8018 42.0066,17.8018 L42.0066,17.8018 Z M30.6696,21.6958 L35.6006,21.6958 C35.5676,20.1098 34.6216,19.0638 33.2026,19.0638 C31.7746,19.0638 30.7786,20.1098 30.6696,21.6958 L30.6696,21.6958 Z M36.9876,24.5918 C36.5726,26.1188 35.1776,27.0658 33.2186,27.0658 C30.7366,27.0658 29.1846,25.2728 29.1846,22.4428 C29.1846,19.6278 30.7616,17.8018 33.2186,17.8018 C35.6336,17.8018 37.1036,19.5208 37.1036,22.3008 L37.1036,22.8488 L30.6696,22.8488 L30.6696,22.9148 C30.7456,24.6838 31.7326,25.8038 33.2516,25.8038 C34.4056,25.8038 35.1856,25.3808 35.5596,24.5918 L36.9876,24.5918 Z M26.5066,20.6988 C26.2746,19.8108 25.4856,19.0888 24.1996,19.0888 C22.5886,19.0888 21.5766,20.3748 21.5766,22.4008 C21.5766,24.4678 22.6056,25.7798 24.1996,25.7798 C25.4026,25.7798 26.2416,25.2228 26.5066,24.2098 L27.9516,24.2098 C27.6936,25.8538 26.3576,27.0658 24.2066,27.0658 C21.7006,27.0658 20.0986,25.2478 20.0986,22.4008 C20.0986,19.6118 21.6926,17.8018 24.1996,17.8018 C26.3736,17.8018 27.7026,19.1058 27.9516,20.6988 L26.5066,20.6988 Z M17.4206,20.6988 C17.1886,19.8108 16.3996,19.0888 15.1136,19.0888 C13.5026,19.0888 12.4906,20.3748 12.4906,22.4008 C12.4906,24.4678 13.5196,25.7798 15.1136,25.7798 C16.3166,25.7798 17.1556,25.2228 17.4206,24.2098 L18.8656,24.2098 C18.6076,25.8538 17.2716,27.0658 15.1216,27.0658 C12.6146,27.0658 11.0126,25.2478 11.0126,22.4008 C11.0126,19.6118 12.6066,17.8018 15.1136,17.8018 C17.2886,17.8018 18.6166,19.1058 18.8656,20.6988 L17.4206,20.6988 Z M3.1666,22.2098 L7.0516,22.2098 L5.1756,16.8648 L5.0426,16.8648 L3.1666,22.2098 Z M7.4916,23.4798 L2.7266,23.4798 L1.5236,26.9078 L-0.0454,26.9078 L4.3706,14.9298 L5.8476,14.9298 L10.2636,26.9078 L8.6956,26.9078 L7.4916,23.4798 Z"/>
</svg>
