<svg xmlns="http://www.w3.org/2000/svg" width="108" height="43" viewBox="0 0 108 43">
  <g fill="none" fill-rule="evenodd">
    <rect width="108" height="43"/>
    <path fill="#FFF" fill-rule="nonzero" d="M12.05,21.01 C12.05,24.84 9.97,27.29 6.55,27.29 C3.11,27.29 1.05,24.85 1.05,21.01 C1.05,17.16 3.16,14.74 6.55,14.74 C9.96,14.74 12.05,17.16 12.05,21.01 Z M2.6,21.01 C2.6,23.98 4.07,25.91 6.56,25.91 C9.02,25.91 10.52,23.98 10.52,21.01 C10.52,18.01 9.01,16.12 6.56,16.12 C4.12,16.12 2.6,18.01 2.6,21.01 Z M14.12,18.05 L15.48,18.05 L15.48,19.46 L15.61,19.46 C16.06,18.47 16.93,17.89 18.3,17.89 C20.31,17.89 21.43,19.08 21.43,21.2 L21.43,27 L20,27 L20,21.55 C20,19.94 19.32,19.18 17.89,19.18 C16.46,19.18 15.54,20.13 15.54,21.7 L15.54,27 L14.11,27 L14.11,18.05 L14.12,18.05 Z M23.67,14.5 L25.1,14.5 L25.1,27 L23.67,27 L23.67,14.5 Z M27.48,30.19 L27.48,28.97 C27.65,29 27.88,29.01 28.08,29.01 C28.9,29.01 29.35,28.62 29.72,27.54 L29.89,27.01 L26.58,18.05 L28.12,18.05 L30.58,25.41 L30.71,25.41 L33.16,18.05 L34.68,18.05 L31.19,27.55 C30.43,29.63 29.71,30.24 28.13,30.24 C27.93,30.24 27.68,30.22 27.48,30.19 Z M40.19,22.53 C40.19,19.65 41.77,17.9 44.32,17.9 C46.87,17.9 48.45,19.65 48.45,22.53 C48.45,25.4 46.87,27.16 44.32,27.16 C41.77,27.16 40.19,25.4 40.19,22.53 Z M46.96,22.53 C46.96,20.41 46.01,19.18 44.31,19.18 C42.61,19.18 41.66,20.4 41.66,22.53 C41.66,24.65 42.61,25.88 44.31,25.88 C46.01,25.88 46.96,24.64 46.96,22.53 Z M50.24,18.05 L51.6,18.05 L51.6,19.46 L51.73,19.46 C52.18,18.47 53.05,17.89 54.42,17.89 C56.43,17.89 57.55,19.08 57.55,21.2 L57.55,27 L56.12,27 L56.12,21.55 C56.12,19.94 55.44,19.18 54.01,19.18 C52.58,19.18 51.66,20.13 51.66,21.7 L51.66,27 L50.23,27 L50.24,18.05 L50.24,18.05 Z M70.98,23.57 L66.22,23.57 L65.01,27 L63.44,27 L67.86,15.02 L69.34,15.02 L73.75,27 L72.18,27 L70.98,23.57 Z M66.65,22.3 L70.53,22.3 L68.65,16.95 L68.52,16.95 L66.65,22.3 Z M83.4,22.53 C83.4,25.33 81.91,27.16 79.64,27.16 C78.36,27.16 77.33,26.6 76.84,25.66 L76.71,25.66 L76.71,29.99 L75.28,29.99 L75.28,18.05 L76.64,18.05 L76.64,19.54 L76.77,19.54 C77.34,18.51 78.41,17.89 79.63,17.89 C81.92,17.89 83.4,19.71 83.4,22.53 Z M81.92,22.53 C81.92,20.44 80.94,19.18 79.31,19.18 C77.69,19.18 76.67,20.47 76.67,22.53 C76.67,24.58 77.69,25.88 79.3,25.88 C80.94,25.87 81.92,24.62 81.92,22.53 Z M93.34,22.53 C93.34,25.33 91.85,27.16 89.58,27.16 C88.3,27.16 87.27,26.6 86.78,25.66 L86.65,25.66 L86.65,29.99 L85.22,29.99 L85.22,18.05 L86.58,18.05 L86.58,19.54 L86.71,19.54 C87.28,18.51 88.35,17.89 89.57,17.89 C91.86,17.89 93.34,19.71 93.34,22.53 Z M91.86,22.53 C91.86,20.44 90.88,19.18 89.25,19.18 C87.63,19.18 86.61,20.47 86.61,22.53 C86.61,24.58 87.63,25.88 89.24,25.88 C90.88,25.87 91.86,24.62 91.86,22.53 Z M95.22,14.5 L96.65,14.5 L96.65,27 L95.22,27 L95.22,14.5 Z M106.31,24.68 C105.89,26.21 104.5,27.15 102.54,27.15 C100.06,27.15 98.51,25.36 98.51,22.53 C98.51,19.72 100.09,17.89 102.54,17.89 C104.96,17.89 106.42,19.61 106.42,22.39 L106.42,22.94 L100,22.94 L100,23.01 C100.07,24.78 101.06,25.9 102.58,25.9 C103.73,25.9 104.51,25.48 104.89,24.69 L106.31,24.68 L106.31,24.68 Z M100,21.79 L104.93,21.79 C104.9,20.2 103.95,19.16 102.53,19.16 C101.1,19.16 100.1,20.2 100,21.79 Z"/>
  </g>
</svg>
