<svg height="48" viewBox="0 0 15 48" width="15" xmlns="http://www.w3.org/2000/svg"><g fill="none" fill-rule="evenodd"><path d="m0 48h15v-48h-15z"/><path d="m14 28.5c0 .827-.673 1.5-1.5 1.5h-10c-.827 0-1.5-.673-1.5-1.5v-9.002c0-.828.673-1.5 1.5-1.5h10c.827 0 1.5.672 1.5 1.5zm-6.5-14c1.436 0 2.607 1.098 2.752 2.498h-5.504c.145-1.4 1.316-2.498 2.752-2.498zm5 2.498h-1.248c-.148-1.952-1.765-3.498-3.752-3.498s-3.604 1.546-3.752 3.498h-1.248c-1.378 0-2.5 1.121-2.5 2.5v9.002c0 1.378 1.122 2.5 2.5 2.5h10c1.378 0 2.5-1.122 2.5-2.5v-9.002c0-1.379-1.122-2.5-2.5-2.5z" fill="#fff"/></g></svg>