<svg height="43" viewBox="0 0 61 43" width="61" xmlns="http://www.w3.org/2000/svg"><path d="m58.6699 15.6504v2.316h1.992v1.196h-1.992v5.063c0 1.054.398 1.502 1.328 1.502.258 0 .399-.008.664-.033v1.204c-.282.05-.555.083-.838.083-1.842 0-2.582-.681-2.582-2.391v-5.428h-1.444v-1.196h1.444v-2.316zm-8.516 2.316h1.362v1.329h.133c.265-.873 1.294-1.487 2.482-1.487.232 0 .531.017.714.042v1.428c-.116-.033-.631-.083-.913-.083-1.362 0-2.35.913-2.35 2.175v5.545h-1.428zm-3.278 4.474c0-2.125-.954-3.345-2.647-3.345-1.694 0-2.649 1.22-2.649 3.345 0 2.117.955 3.346 2.649 3.346 1.693 0 2.647-1.229 2.647-3.346zm-6.773 0c0-2.88 1.577-4.632 4.126-4.632 2.547 0 4.125 1.752 4.125 4.632 0 2.872-1.578 4.632-4.125 4.632-2.549 0-4.126-1.76-4.126-4.632zm-2.861 0c0-2.092-.979-3.345-2.615-3.345-1.618 0-2.64 1.286-2.64 3.345 0 2.051 1.022 3.346 2.632 3.346 1.644 0 2.623-1.254 2.623-3.346zm1.478 0c0 2.798-1.487 4.632-3.761 4.632-1.278 0-2.308-.556-2.797-1.502h-.133v4.333h-1.427v-11.937h1.361v1.495h.133c.572-1.03 1.643-1.653 2.863-1.653 2.283 0 3.761 1.819 3.761 4.632zm-11.419 0c0-2.092-.98-3.345-2.615-3.345-1.619 0-2.64 1.286-2.64 3.345 0 2.051 1.021 3.346 2.632 3.346 1.643 0 2.623-1.254 2.623-3.346zm1.477 0c0 2.798-1.486 4.632-3.76 4.632-1.279 0-2.308-.556-2.797-1.502h-.133v4.333h-1.428v-11.937h1.362v1.495h.132c.573-1.03 1.644-1.653 2.864-1.653 2.283 0 3.76 1.819 3.76 4.632zm-10.353 4.475h-1.361v-1.404h-.133c-.449.996-1.404 1.561-2.773 1.561-2.009 0-3.054-1.195-3.054-3.312v-5.794h1.427v5.446c0 1.61.598 2.357 2.026 2.357 1.577 0 2.44-.938 2.44-2.507v-5.296h1.428zm-16.576-3.13c.182 1.254 1.378 2.051 3.079 2.051 1.61 0 2.798-.873 2.798-2.059 0-1.022-.747-1.669-2.4-2.084l-1.535-.398c-2.167-.548-3.104-1.528-3.104-3.229 0-2.034 1.701-3.412 4.233-3.412 2.315 0 4.042 1.378 4.167 3.312h-1.503c-.207-1.228-1.22-1.959-2.714-1.959-1.594 0-2.648.797-2.648 2.009 0 .938.656 1.478 2.307 1.901l1.254.332c2.482.623 3.478 1.586 3.478 3.345 0 2.2-1.735 3.603-4.474 3.603-2.54 0-4.292-1.345-4.449-3.412z" fill="#fff" fill-rule="evenodd"/></svg>