<svg height="43" viewBox="0 0 51 43" width="51" xmlns="http://www.w3.org/2000/svg"><path d="m44.3096 21.7021h4.931c-.034-1.585-.98-2.631-2.399-2.631-1.428 0-2.424 1.046-2.532 2.631zm6.317 2.897c-.415 1.527-1.81 2.474-3.769 2.474-2.482 0-4.034-1.793-4.034-4.624 0-2.814 1.577-4.64 4.034-4.64 2.416 0 3.885 1.718 3.885 4.499v.548h-6.433v.066c.075 1.768 1.062 2.889 2.582 2.889 1.153 0 1.934-.423 2.307-1.212zm-16.851-6.632h1.362v1.411h.132c.449-.988 1.32-1.569 2.69-1.569 2.009 0 3.129 1.187 3.129 3.312v5.794h-1.427v-5.445c0-1.611-.681-2.374-2.109-2.374s-2.349.954-2.349 2.523v5.296h-1.428zm-3.279 4.474c0-2.125-.954-3.345-2.647-3.345-1.694 0-2.648 1.22-2.648 3.345 0 2.116.954 3.345 2.648 3.345 1.693 0 2.647-1.229 2.647-3.345zm-6.773 0c0-2.881 1.577-4.632 4.126-4.632 2.548 0 4.125 1.751 4.125 4.632 0 2.872-1.577 4.632-4.125 4.632-2.549 0-4.126-1.76-4.126-4.632zm-9.136-8.027h1.428v4.964h.133c.448-.988 1.386-1.569 2.756-1.569 1.892 0 3.088 1.212 3.088 3.312v5.794h-1.428v-5.445c0-1.586-.714-2.374-2.067-2.374-1.602 0-2.482 1.012-2.482 2.523v5.296h-1.428zm-8.609 6.898h2.64c1.702 0 2.69-.913 2.69-2.499 0-1.643-.955-2.548-2.69-2.548h-2.64zm3.03-6.375c2.266 0 3.835 1.594 3.835 3.876 0 2.242-1.602 3.827-3.851 3.827h-3.014v4.275h-1.494v-11.978zm-8.469 11.978h1.428v-8.948h-1.428zm-.282-11.671c0-.548.448-.996.996-.996s.996.448.996.996-.448.996-.996.996-.996-.448-.996-.996z" fill="#fff" fill-rule="evenodd"/></svg>