<svg height="43" viewBox="0 0 58 43" width="58" xmlns="http://www.w3.org/2000/svg"><path d="m54.4883 17.8091c1.876 0 3.179.93 3.37 2.399h-1.411c-.191-.714-.889-1.187-1.968-1.187-1.062 0-1.892.539-1.892 1.336 0 .615.498.996 1.552 1.254l1.378.332c1.685.407 2.498 1.137 2.498 2.424 0 1.602-1.551 2.706-3.586 2.706-1.992 0-3.361-.955-3.519-2.441h1.47c.24.756.954 1.237 2.099 1.237 1.204 0 2.068-.573 2.068-1.394 0-.615-.465-1.03-1.42-1.262l-1.535-.374c-1.677-.406-2.441-1.129-2.441-2.424 0-1.485 1.436-2.606 3.337-2.606zm-12.006 4.632c0 2.092.98 3.345 2.615 3.345 1.627 0 2.631-1.278 2.631-3.345 0-2.05-1.012-3.345-2.631-3.345-1.627 0-2.615 1.261-2.615 3.345zm-1.477 0c0-2.806 1.486-4.632 3.76-4.632 1.245 0 2.299.589 2.806 1.569h.124v-4.964h1.428v12.501h-1.362v-1.428h-.132c-.565.996-1.627 1.586-2.864 1.586-2.291 0-3.76-1.818-3.76-4.632zm-2.866 0c0-2.125-.955-3.345-2.648-3.345s-2.648 1.22-2.648 3.345c0 2.117.955 3.345 2.648 3.345s2.648-1.228 2.648-3.345zm-6.773 0c0-2.881 1.577-4.632 4.125-4.632 2.549 0 4.126 1.751 4.126 4.632 0 2.872-1.577 4.632-4.126 4.632-2.548 0-4.125-1.76-4.125-4.632zm-8.088-1.129h2.64c1.701 0 2.689-.913 2.689-2.499 0-1.643-.955-2.548-2.689-2.548h-2.64zm3.029-6.375c2.267 0 3.835 1.594 3.835 3.876 0 2.242-1.601 3.827-3.851 3.827h-3.013v4.275h-1.494v-11.978zm-10.767 3.03h1.361v1.328h.133c.266-.872 1.295-1.486 2.481-1.486.233 0 .532.017.714.042v1.427c-.116-.033-.631-.083-.913-.083-1.361 0-2.349.913-2.349 2.175v5.545h-1.427zm-3.7 8.948h1.428v-8.948h-1.428zm-.283-11.671c0-.548.449-.996.996-.996.548 0 .997.448.997.996s-.449.996-.997.996c-.547 0-.996-.448-.996-.996zm-8.361 6.973h3.885l-1.876-5.346h-.133zm4.325 1.27h-4.764l-1.205 3.428h-1.568l4.416-11.978h1.478l4.416 11.978h-1.57z" fill="#fff" fill-rule="evenodd"/></svg>