<svg height="43" viewBox="0 0 32 43" width="32" xmlns="http://www.w3.org/2000/svg"><path d="m29.8799 20.791c-.232-.888-1.021-1.61-2.308-1.61-1.61 0-2.623 1.286-2.623 3.312 0 2.067 1.03 3.378 2.623 3.378 1.204 0 2.042-.556 2.308-1.569h1.444c-.257 1.644-1.593 2.856-3.743 2.856-2.507 0-4.109-1.818-4.109-4.665 0-2.789 1.594-4.599 4.1-4.599 2.175 0 3.503 1.303 3.752 2.897zm-9.583 2.872v-.822l-2.407.158c-1.362.091-1.959.564-1.959 1.461 0 .913.771 1.444 1.809 1.444 1.469 0 2.557-.963 2.557-2.241zm-5.844.83c0-1.602 1.179-2.523 3.262-2.648l2.582-.158v-.813c0-1.104-.689-1.71-2.025-1.71-1.072 0-1.819.407-2.018 1.112h-1.444c.191-1.436 1.602-2.382 3.511-2.382 2.183 0 3.404 1.121 3.404 2.98v6.126h-1.362v-1.32h-.132c-.581.955-1.561 1.478-2.756 1.478-1.736 0-3.022-1.03-3.022-2.665zm-3.368 2.507v-9.147h-.1l-3.777 9.147h-1.262l-3.776-9.147h-.1v9.147h-1.394v-11.978h1.734l4.101 9.994h.133l4.1-9.994h1.736v11.978z" fill="#fff" fill-rule="evenodd"/></svg>