<svg xmlns="http://www.w3.org/2000/svg" width="40" height="43" viewBox="0 0 40 43">
  <path fill="#FFF" fill-rule="evenodd" d="M32.9775,21.7651 L37.9085,21.7651 C37.8745,20.1801 36.9285,19.1341 35.5095,19.1341 C34.0815,19.1341 33.0855,20.1801 32.9775,21.7651 L32.9775,21.7651 Z M39.2945,24.6621 C38.8795,26.1891 37.4845,27.1361 35.5255,27.1361 C33.0435,27.1361 31.4915,25.3431 31.4915,22.5121 C31.4915,19.6981 33.0685,17.8721 35.5255,17.8721 C37.9415,17.8721 39.4105,19.5901 39.4105,22.3711 L39.4105,22.9191 L32.9775,22.9191 L32.9775,22.9851 C33.0525,24.7531 34.0395,25.8741 35.5595,25.8741 C36.7125,25.8741 37.4935,25.4511 37.8665,24.6621 L39.2945,24.6621 Z M26.0075,18.0301 L27.3695,18.0301 L27.3695,19.3581 L27.5015,19.3581 C27.7675,18.4861 28.7965,17.8721 29.9835,17.8721 C30.2165,17.8721 30.5155,17.8891 30.6975,17.9131 L30.6975,19.3411 C30.5815,19.3081 30.0665,19.2581 29.7845,19.2581 C28.4235,19.2581 27.4355,20.1711 27.4355,21.4331 L27.4355,26.9781 L26.0075,26.9781 L26.0075,18.0301 Z M22.7285,22.5041 C22.7285,20.3791 21.7745,19.1591 20.0815,19.1591 C18.3875,19.1591 17.4335,20.3791 17.4335,22.5041 C17.4335,24.6201 18.3875,25.8491 20.0815,25.8491 C21.7745,25.8491 22.7285,24.6201 22.7285,22.5041 L22.7285,22.5041 Z M15.9555,22.5041 C15.9555,19.6231 17.5325,17.8721 20.0815,17.8721 C22.6295,17.8721 24.2065,19.6231 24.2065,22.5041 C24.2065,25.3761 22.6295,27.1361 20.0815,27.1361 C17.5325,27.1361 15.9555,25.3761 15.9555,22.5041 L15.9555,22.5041 Z M13.0045,15.7141 L13.0045,18.0301 L14.9975,18.0301 L14.9975,19.2251 L13.0045,19.2251 L13.0045,24.2881 C13.0045,25.3431 13.4035,25.7911 14.3325,25.7911 C14.5905,25.7911 14.7315,25.7831 14.9975,25.7581 L14.9975,26.9611 C14.7145,27.0111 14.4405,27.0441 14.1585,27.0441 C12.3155,27.0441 11.5775,26.3641 11.5775,24.6541 L11.5775,19.2251 L10.1325,19.2251 L10.1325,18.0301 L11.5775,18.0301 L11.5775,15.7141 L13.0045,15.7141 Z M1.5105,23.8481 C1.6935,25.1021 2.8885,25.8991 4.5905,25.8991 C6.2005,25.8991 7.3875,25.0271 7.3875,23.8401 C7.3875,22.8191 6.6405,22.1721 4.9885,21.7571 L3.4535,21.3581 C1.2865,20.8101 0.3485,19.8311 0.3485,18.1291 C0.3485,16.0961 2.0505,14.7181 4.5815,14.7181 C6.8975,14.7181 8.6245,16.0961 8.7485,18.0301 L7.2465,18.0301 C7.0395,16.8011 6.0265,16.0711 4.5325,16.0711 C2.9385,16.0711 1.8845,16.8681 1.8845,18.0791 C1.8845,19.0171 2.5405,19.5571 4.1915,19.9801 L5.4455,20.3121 C7.9275,20.9351 8.9235,21.8981 8.9235,23.6581 C8.9235,25.8571 7.1885,27.2601 4.4495,27.2601 C1.9095,27.2601 0.1575,25.9151 -0.0005,23.8481 L1.5105,23.8481 Z"/>
</svg>
