<svg height="43" viewBox="0 0 48 43" width="48" xmlns="http://www.w3.org/2000/svg"><path d="m40.123 14.499h1.428v4.964h.133c.448-.988 1.386-1.569 2.755-1.569 1.893 0 3.088 1.212 3.088 3.312v5.794h-1.427v-5.445c0-1.586-.714-2.374-2.067-2.374-1.602 0-2.482 1.012-2.482 2.523v5.296h-1.428zm-3.165 6.292c-.232-.888-1.021-1.61-2.308-1.61-1.61 0-2.623 1.286-2.623 3.312 0 2.067 1.03 3.378 2.623 3.378 1.204 0 2.042-.556 2.308-1.569h1.444c-.257 1.644-1.593 2.856-3.743 2.856-2.507 0-4.109-1.818-4.109-4.665 0-2.789 1.594-4.599 4.1-4.599 2.175 0 3.503 1.303 3.752 2.897zm-9.342-5.055v2.316h1.992v1.195h-1.992v5.064c0 1.054.399 1.502 1.328 1.502.258 0 .399-.008.664-.033v1.203c-.282.05-.556.083-.838.083-1.843 0-2.582-.68-2.582-2.39v-5.429h-1.444v-1.195h1.444v-2.316zm-5.542 7.927v-.822l-2.407.158c-1.361.091-1.959.564-1.959 1.461 0 .913.772 1.444 1.81 1.444 1.469 0 2.556-.963 2.556-2.241zm-5.844.83c0-1.602 1.179-2.523 3.263-2.648l2.581-.158v-.813c0-1.104-.689-1.71-2.025-1.71-1.071 0-1.818.407-2.017 1.112h-1.445c.191-1.436 1.602-2.382 3.512-2.382 2.183 0 3.403 1.121 3.403 2.98v6.126h-1.361v-1.32h-.133c-.581.955-1.561 1.478-2.756 1.478-1.735 0-3.022-1.03-3.022-2.665zm-10.81 2.507h-1.411l-3.262-11.978h1.561l2.382 9.737h.1l2.681-9.737h1.51l2.682 9.737h.099l2.382-9.737h1.561l-3.262 11.978h-1.411l-2.756-9.455h-.1z" fill="#fff" fill-rule="evenodd"/></svg>