<svg height="43" viewBox="0 0 32 43" width="32" xmlns="http://www.w3.org/2000/svg"><path d="m24.8213 22.5259c0 2.092.979 3.345 2.614 3.345 1.627 0 2.632-1.278 2.632-3.345 0-2.05-1.013-3.345-2.632-3.345-1.627 0-2.614 1.262-2.614 3.345zm-1.478 0c0-2.806 1.486-4.632 3.76-4.632 1.245 0 2.3.59 2.806 1.569h.125v-4.964h1.428v12.501h-1.362v-1.428h-.133c-.564.996-1.626 1.586-2.864 1.586-2.291 0-3.76-1.818-3.76-4.632zm-3.175 1.137v-.822l-2.408.158c-1.361.091-1.959.565-1.959 1.461 0 .913.773 1.444 1.81 1.444 1.47 0 2.557-.962 2.557-2.241zm-5.844.83c0-1.602 1.179-2.523 3.263-2.648l2.581-.157v-.814c0-1.104-.689-1.71-2.026-1.71-1.07 0-1.817.407-2.016 1.112h-1.445c.191-1.436 1.602-2.382 3.511-2.382 2.184 0 3.403 1.121 3.403 2.98v6.126h-1.361v-1.32h-.133c-.581.955-1.56 1.478-2.756 1.478-1.734 0-3.021-1.029-3.021-2.665zm-8.065-3.096h2.64c1.702 0 2.69-.913 2.69-2.498 0-1.644-.955-2.549-2.69-2.549h-2.64zm3.031-6.375c2.265 0 3.835 1.594 3.835 3.877 0 2.241-1.603 3.826-3.852 3.826h-3.014v4.275h-1.494v-11.978zm-8.47 11.978h1.428v-8.948h-1.428zm-.282-11.671c0-.548.448-.996.996-.996s.996.448.996.996-.448.996-.996.996-.996-.448-.996-.996z" fill="#fff" fill-rule="evenodd"/></svg>