<svg xmlns="http://www.w3.org/2000/svg" width="87" height="43" viewBox="0 0 87 43">
  <path fill="#FFF" fill-rule="evenodd" d="M80.3877,21.7021 L85.3187,21.7021 C85.2847,20.1171 84.3387,19.0711 82.9197,19.0711 C81.4917,19.0711 80.4957,20.1171 80.3877,21.7021 L80.3877,21.7021 Z M86.7047,24.5991 C86.2897,26.1261 84.8947,27.0731 82.9357,27.0731 C80.4537,27.0731 78.9017,25.2801 78.9017,22.4491 C78.9017,19.6351 80.4787,17.8091 82.9357,17.8091 C85.3517,17.8091 86.8207,19.5271 86.8207,22.3081 L86.8207,22.8561 L80.3877,22.8561 L80.3877,22.9221 C80.4627,24.6901 81.4497,25.8111 82.9697,25.8111 C84.1227,25.8111 84.9037,25.3881 85.2767,24.5991 L86.7047,24.5991 Z M64.9887,17.9671 L66.3497,17.9671 L66.3497,19.3781 L66.4827,19.3781 C66.8887,18.3821 67.7857,17.8091 68.9807,17.8091 C70.1927,17.8091 71.0397,18.4481 71.4547,19.3781 L71.5877,19.3781 C72.0687,18.4311 73.0897,17.8091 74.3267,17.8091 C76.1527,17.8091 77.1737,18.8551 77.1737,20.7311 L77.1737,26.9151 L75.7457,26.9151 L75.7457,21.0631 C75.7457,19.7431 75.1237,19.0961 73.8617,19.0961 C72.6167,19.0961 71.7867,20.0251 71.7867,21.1621 L71.7867,26.9151 L70.3587,26.9151 L70.3587,20.8391 C70.3587,19.7761 69.6197,19.0961 68.4917,19.0961 C67.3207,19.0961 66.4157,20.1081 66.4157,21.3701 L66.4157,26.9151 L64.9887,26.9151 L64.9887,17.9671 Z M61.7097,22.4411 C61.7097,20.3161 60.7557,19.0961 59.0617,19.0961 C57.3687,19.0961 56.4137,20.3161 56.4137,22.4411 C56.4137,24.5571 57.3687,25.7861 59.0617,25.7861 C60.7557,25.7861 61.7097,24.5571 61.7097,22.4411 L61.7097,22.4411 Z M54.9367,22.4411 C54.9367,19.5601 56.5137,17.8091 59.0617,17.8091 C61.6107,17.8091 63.1877,19.5601 63.1877,22.4411 C63.1877,25.3131 61.6107,27.0731 59.0617,27.0731 C56.5137,27.0731 54.9367,25.3131 54.9367,22.4411 L54.9367,22.4411 Z M51.4007,26.9151 L51.4007,21.4611 L44.8267,21.4611 L44.8267,26.9151 L43.3327,26.9151 L43.3327,14.9371 L44.8267,14.9371 L44.8267,20.1171 L51.4007,20.1171 L51.4007,14.9371 L52.8947,14.9371 L52.8947,26.9151 L51.4007,26.9151 Z M32.6587,17.4021 C32.6587,16.4731 31.9867,15.8421 31.0147,15.8421 C30.0607,15.8421 29.3797,16.4891 29.3797,17.4191 C29.3797,18.0831 29.7207,18.6641 30.6667,19.6021 C32.1277,18.8551 32.6587,18.2571 32.6587,17.4021 L32.6587,17.4021 Z M28.1097,23.6191 C28.1097,24.9641 29.1977,25.8771 30.7997,25.8771 C31.8867,25.8771 33.0077,25.4461 33.6627,24.7571 L30.2767,21.0551 C30.1847,21.0881 29.9697,21.1961 29.8527,21.2541 C28.6997,21.8511 28.1097,22.6811 28.1097,23.6191 L28.1097,23.6191 Z M34.5427,25.7201 C33.5217,26.6161 32.1187,27.1391 30.6667,27.1391 C28.2837,27.1391 26.6157,25.7281 26.6157,23.7191 C26.6157,22.3001 27.3877,21.2211 28.9897,20.3741 C29.0977,20.3241 29.3217,20.2081 29.4547,20.1411 C28.3507,18.9791 27.9517,18.2071 27.9517,17.3361 C27.9517,15.8001 29.2557,14.6551 31.0067,14.6551 C32.7747,14.6551 34.0617,15.7841 34.0617,17.3521 C34.0617,18.5811 33.3227,19.4771 31.4717,20.4491 L34.4687,23.6691 C34.8417,22.9221 35.0327,21.9431 35.0327,20.4491 L35.0327,20.2411 L36.4277,20.2411 L36.4277,20.4571 C36.4277,22.3161 36.0957,23.6691 35.4397,24.6821 L37.5227,26.9151 L35.6467,26.9151 L34.5427,25.7201 Z M15.1447,26.9151 L10.7287,14.9371 L12.2977,14.9371 L15.8177,24.9811 L15.9497,24.9811 L19.4697,14.9371 L21.0387,14.9371 L16.6227,26.9151 L15.1447,26.9151 Z M4.0387,26.9151 L4.0387,16.2821 L0.1797,16.2821 L0.1797,14.9371 L9.3927,14.9371 L9.3927,16.2821 L5.5337,16.2821 L5.5337,26.9151 L4.0387,26.9151 Z"/>
</svg>
